<?xml version="1.0" encoding="iso-8859-1"?>
<!-- Uploaded to: SVG Repo, www.svgrepo.com, Generator: SVG Repo Mixer Tools -->
<svg fill="#000000" height="800px" width="800px" version="1.1" id="Layer_1" xmlns="http://www.w3.org/2000/svg" xmlns:xlink="http://www.w3.org/1999/xlink" 
	 viewBox="0 0 512 512" xml:space="preserve">
<g>
	<g>
		<path d="M264.47,0L0.001,264.469L247.53,512l264.469-264.469V0H264.47z M478.122,233.499L247.53,464.091L47.91,264.469
			L278.502,33.877h199.62V233.499z"/>
	</g>
</g>
<g>
	<g>
		<path d="M427.184,62.225c-12.449,0.005-22.578,10.136-22.578,22.585c0,12.453,10.131,22.585,22.585,22.585
			c12.453,0,22.585-10.131,22.585-22.585C449.775,72.357,439.645,62.225,427.184,62.225z"/>
	</g>
</g>
<g>
	<g>
		<path d="M255.516,104.772L95.819,264.469l151.713,151.713l159.696-159.698L255.516,104.772z M143.726,264.469l111.789-111.788
			l103.803,103.803L247.532,368.274L143.726,264.469z"/>
	</g>
</g>
</svg>